<svg width="64" height="64" viewBox="0 0 64 64" fill="none" xmlns="http://www.w3.org/2000/svg">
  <rect width="64" height="64" rx="16" fill="#0B0B0F"/>
  <path
    fill="#FAFAFA"
    d="M16 20.5c0-3.59 2.91-6.5 6.5-6.5h2.75c2.28 0 4.13 1.85 4.13 4.13v4.72c0 1 .81 1.82 1.82 1.82h2.9c1 0 1.82-.82 1.82-1.82V18.1c0-2.28 1.85-4.13 4.13-4.13H43.5c3.59 0 6.5 2.91 6.5 6.5v8.7c0 2.45-1.99 4.44-4.44 4.44h-3.04c-1.01 0-1.82.81-1.82 1.82v4.72c0 2.28-1.85 4.13-4.13 4.13H33.3c-2.28 0-4.13-1.85-4.13-4.13v-4.72c0-1.01-.82-1.82-1.82-1.82H24.3c-2.45 0-4.44-1.99-4.44-4.44v-8.7Z"
  />
</svg>
